<?xml version="1.0" encoding="utf-8"?>
<!-- Generator: Adobe Illustrator 22.0.0, SVG Export Plug-In . SVG Version: 6.00 Build 0)  -->
<svg version="1.1" id="Calque_1" xmlns="http://www.w3.org/2000/svg" xmlns:xlink="http://www.w3.org/1999/xlink" x="0px" y="0px"
	 viewBox="0 0 483.3 290" style="enable-background:new 0 0 483.3 290;" xml:space="preserve">
<style type="text/css">
	.st0{opacity:0.31;fill:#377dff;enable-background:new    ;}
</style>
<path class="st0" d="M426.6,172.9c-0.4-2.2-2.1-3.8-4.2-3.8h-0.1l0,0h-27.7l0,0h-3.8v-31.7c0-3.7-2.1-7-5.2-8.4l-7.2-3.4
	c-1.4-0.6-2.3-1.9-2.5-3.5h0.7c0.2,0,0.3,0,0.5-0.1c0.4-0.2,0.7-0.5,0.7-1.1v-6.9c0-1.9-1.5-3.5-3.2-3.5h-0.8v-3.2
	c0-0.2,0-0.4,0-0.6v-5.3h8.1v10.4c0,3.1,2.4,5.7,5.3,5.7c0.6,0,1-0.5,1.1-1.1v-14.9h3.1c0.6,0,1.1-0.5,1.1-1.2v-1.2h5.3
	c1.8,0,3.2-1.5,3.2-3.5V91c0-1.9-1.4-3.5-3.2-3.5h-0.1h-5.3v-1.2c0-0.6-0.5-1.2-1.1-1.2h-0.1h-29.8H353c-1.8,0-3.2,1.5-3.2,3.5v9.3
	c0,1.9,1.4,3.5,3.2,3.5h5.3v9.2h-0.8c-1.8,0-3.2,1.5-3.2,3.5v6.9c0,0.6,0.5,1.2,1.1,1.2h0.8c-0.1,0.9-0.5,1.6-1,2.3
	c-0.4,0.5-0.9,0.9-1.5,1.2l-7.2,3.4c-3.2,1.4-5.2,4.8-5.2,8.4v35.4H238.9c-0.6-1.8-1.9-3.2-3.6-4.1l-5.6-2.6c-1.1-0.4-1.8-1.5-2-2.7
	h0.6c0.4,0,0.8-0.4,0.8-0.9v-5.3c0-1.5-1.1-2.7-2.5-2.7h-0.7v-9.8c0-1.5-1.1-2.7-2.5-2.7h-3.6h-3.3c-1.4,0-2.5,1.2-2.5,2.7v9.8h-0.7
	c-1.4,0-2.5,1.2-2.5,2.7v5.3c0,0.4,0.4,0.9,0.8,0.9h0.6c-0.2,1.2-0.9,2.3-2,2.7l-1.6,0.8V139c0-2.9-1.6-5.4-4-6.6l-5.6-2.6
	c-1.2-0.5-2-1.8-2-3.2v-2.8h0.7c0.4,0,0.8-0.4,0.8-0.9v-0.1v-8.8v-0.1c0-1.3-0.9-2.5-2.1-2.6c-0.2,0-0.4-0.1-0.5-0.1h-13
	c-1.4,0-2.6,1.3-2.6,2.8v8.8c0,0.5,0.4,1,0.9,1h0.6v2.8c0,1.4-0.8,2.7-2,3.2l-5.6,2.6c-2.4,1.1-4,3.7-4,6.6v33.7h-58.8l4-2.1
	c4.8-17.2-3.1-35.6-18.4-42.6l-6.6,3.4l-0.7-1.7c-0.3-0.6-1.1-1-1.7-0.6l-2.3,1.2l0,0l-4.6,2.4l-3.4,1.7c-0.3,0.2-0.6,0.4-0.7,0.8
	c-0.1,0.3-0.1,0.8,0,1.1l5.5,12.7c0.8,2.1,0.4,4.5-1.1,6.2l-2.2,2.4c-0.4,0.4-0.5,1.1-0.3,1.5l0.2,0.4l-5.7,2.9l0,0l-20.9,10.6h-7.7
	v-13.7v-6.9c0-2.7-1.5-5.2-3.8-6.3l-5.3-2.5c-1-0.4-1.7-1.4-1.9-2.6h0.6c0.4,0,0.8-0.4,0.8-0.9v-5.1c0-1.4-1.1-2.6-2.4-2.6h-0.6
	v-9.4c0-1.4-1.1-2.6-2.4-2.6h-3.5h-3.2c-1.3,0-2.4,1.2-2.4,2.6v9.4h-0.6c-1.3,0-2.4,1.2-2.4,2.6v5.1c0,0.4,0.4,0.9,0.8,0.9h0.6
	c-0.2,1.2-0.9,2.2-1.9,2.6l-5.3,2.5c-2.3,1.1-3.8,3.6-3.8,6.3v20.7H0V290h483.3V172.9H426.6z M68.5,172.9l13.8-7l0.1,0.3
	c0.2,0.5,0.7,0.9,1.3,0.8l3.1-0.3c2.1-0.2,4.2,1,5.1,3.1l1.3,3.1L68.5,172.9L68.5,172.9z"/>
</svg>
