<?xml version="1.0" encoding="utf-8"?>
<!-- Generator: Adobe Illustrator 22.0.0, SVG Export Plug-In . SVG Version: 6.00 Build 0)  -->
<svg version="1.1" id="Layer_1_1_" xmlns="http://www.w3.org/2000/svg" xmlns:xlink="http://www.w3.org/1999/xlink" x="0px" y="0px"
	 viewBox="0 0 905.9 888.2" style="enable-background:new 0 0 905.9 888.2;" xml:space="preserve">
<style type="text/css">
	.st0{opacity:0.73;}
	.st1{fill:#DE4437;}
	.st2{opacity:0.15;fill:#DE4437;}
</style>
<g class="st0">
	<path class="st1" d="M539,436.8c14.4,0,26.1-11.7,26.1-26.1s-11.7-26.1-26.1-26.1s-26.1,11.7-26.1,26.1c0,5.9,2,11.3,5.2,15.7
		l-42.9,59.9c-2.6-0.8-5.3-1.3-8.1-1.3c-6.9,0-13.1,2.7-17.8,7l-28.6-16.2c0.4-1.8,0.6-3.6,0.6-5.5c0-14.4-11.7-26.1-26.1-26.1
		s-26.1,11.7-26.1,26.1c0,1.9,0.2,3.7,0.6,5.5l-28.6,16.2c-4.7-4.3-10.9-7-17.8-7c-14.4,0-26.1,11.7-26.1,26.1
		c0,14.4,11.7,26.1,26.1,26.1s26.1-11.7,26.1-26.1c0-1.9-0.2-3.7-0.6-5.5l28.6-16.2c4.7,4.3,10.9,7,17.8,7s13.1-2.7,17.8-7
		l28.6,16.2c-0.4,1.8-0.6,3.6-0.6,5.5c0,14.4,11.7,26.1,26.1,26.1c14.4,0,26.1-11.7,26.1-26.1c0-5.9-2-11.3-5.2-15.7l42.9-59.9
		C533.4,436.3,536.1,436.8,539,436.8z M539,400.2c5.8,0,10.4,4.7,10.4,10.4c0,5.8-4.7,10.4-10.4,10.4s-10.4-4.7-10.4-10.4
		C528.5,404.9,533.2,400.2,539,400.2z M323.5,521.5c-5.8,0-10.4-4.7-10.4-10.4s4.7-10.4,10.4-10.4c5.8,0,10.4,4.7,10.4,10.4
		S329.3,521.5,323.5,521.5z M395.3,480.7c-5.8,0-10.4-4.7-10.4-10.4c0-5.8,4.7-10.4,10.4-10.4c5.8,0,10.4,4.7,10.4,10.4
		C405.8,476,401.1,480.7,395.3,480.7z M467.2,521.5c-5.8,0-10.4-4.7-10.4-10.4s4.7-10.4,10.4-10.4c5.8,0,10.4,4.7,10.4,10.4
		S472.9,521.5,467.2,521.5z"/>
	<path class="st1" d="M635.2,691.3h-54.8H282.1h-61.8c-3.6,0-6.5-2.9-6.5-6.5V361.9c0-3.6,2.9-6.5,6.5-6.5h36.9
		c4.3,0,7.8-3.5,7.8-7.8c0-4.3-3.5-7.8-7.8-7.8h-36.9c-12.2,0-22.1,9.9-22.1,22.1v322.9c0,12.2,9.9,22.1,22.1,22.1h54v17.2
		c0,9.8,8,17.8,17.8,17.8h78.3l-36.9,72c-2,3.8-0.4,8.6,3.4,10.5c1.1,0.6,2.4,0.9,3.6,0.9c2.8,0,5.6-1.6,7-4.3l40.5-79.1h86.5
		l40.5,79.1c1.4,2.7,4.1,4.3,7,4.3c1.2,0,2.4-0.3,3.6-0.9c3.8-2,5.4-6.7,3.4-10.5l-36.9-72h78.3c9.8,0,17.8-8,17.8-17.8v-17.2h46.9
		c4.3,0,7.8-3.5,7.8-7.8S639.5,691.3,635.2,691.3z M572.6,724.1c0,1.2-1,2.1-2.1,2.1H292.1c-1.2,0-2.1-1-2.1-2.1v-17.2h282.6V724.1z
		"/>
	<path class="st1" d="M288.5,355.4h107.1h71.2h175.3c3.6,0,6.5,2.9,6.5,6.5v74.4c0,4.3,3.5,7.8,7.8,7.8c4.3,0,7.8-3.5,7.8-7.8v-74.4
		c0-12.2-9.9-22.1-22.1-22.1H474.7v-15.4c0-10.8-8.8-19.6-19.6-19.6h-47.6c-10.8,0-19.6,8.8-19.6,19.6v15.4h-99.3
		c-4.3,0-7.8,3.5-7.8,7.8C280.7,351.9,284.2,355.4,288.5,355.4z M403.5,324.4c0-2.2,1.8-4,4-4H455c2.2,0,4,1.8,4,4v15.4h-55.6
		L403.5,324.4L403.5,324.4z"/>
	<path class="st1" d="M307.6,577.1c-4.3,0-7.8,3.5-7.8,7.8v69.2c0,4.3,3.5,7.8,7.8,7.8h31.7c4.3,0,7.8-3.5,7.8-7.8V585
		c0-4.3-3.5-7.8-7.8-7.8H307.6z M331.6,646.3h-16.1v-53.5h16.1V646.3z"/>
	<path class="st1" d="M379.5,537.1c-4.3,0-7.8,3.5-7.8,7.8v109.1c0,4.3,3.5,7.8,7.8,7.8h31.7c4.3,0,7.8-3.5,7.8-7.8V545
		c0-4.3-3.5-7.8-7.8-7.8H379.5z M403.4,646.3h-16.1v-93.5h16.1V646.3z"/>
	<path class="st1" d="M451.3,577.1c-4.3,0-7.8,3.5-7.8,7.8v69.2c0,4.3,3.5,7.8,7.8,7.8H483c4.3,0,7.8-3.5,7.8-7.8V585
		c0-4.3-3.5-7.8-7.8-7.8H451.3z M475.2,646.3h-16.1v-53.5h16.1V646.3z"/>
	<path class="st1" d="M523.1,623.3c-4.3,0-7.8,3.5-7.8,7.8v23c0,4.3,3.5,7.8,7.8,7.8h31.7c4.3,0,7.8-3.5,7.8-7.8
		c0-4.3-3.5-7.8-7.8-7.8h-23.9v-15.1C530.9,626.8,527.4,623.3,523.1,623.3z"/>
	<path class="st1" d="M728.4,698.6l-44.9-77.8c11.4-12.1,19.7-26.9,24.1-43.4c7.1-26.4,3.4-54-10.2-77.6
		c-28.2-48.8-90.9-65.6-139.7-37.4c-48.8,28.2-65.6,90.9-37.4,139.7c13.7,23.7,35.7,40.6,62.1,47.7c8.8,2.4,17.8,3.5,26.6,3.5
		c7.8,0,15.5-0.9,23-2.7l44.9,77.8c5.5,9.5,15.5,14.9,25.8,14.9c5,0,10.2-1.3,14.8-4c9.2-5.3,14.9-15.2,14.9-25.8
		C732.4,708.3,731,703.2,728.4,698.6z M586.4,634.6c-22.4-6-41-20.3-52.6-40.4c-23.9-41.4-9.7-94.5,31.7-118.3
		c13.6-7.9,28.5-11.6,43.2-11.6c30,0,59.1,15.5,75.2,43.3c11.6,20,14.6,43.4,8.7,65.7c-6,22.4-20.3,41-40.4,52.6
		C632.1,637.5,608.7,640.6,586.4,634.6z M709.7,725.7c-6.7,3.9-15.4,1.6-19.3-5.2l-43.2-74.8c4.3-1.8,8.6-3.8,12.7-6.2
		c4.1-2.4,8-5,11.7-7.9l43.2,74.8c1.2,2.2,1.9,4.6,1.9,7C716.8,718.5,714.1,723.2,709.7,725.7z"/>
	<path class="st1" d="M679.8,573c5.5-17.8,4.2-36.8-3.7-53.6c-1.8-3.9-6.5-5.6-10.4-3.7c-3.9,1.8-5.6,6.5-3.7,10.4
		c6.2,13.3,7.3,28.3,2.9,42.3c-4.4,14.1-13.9,26-26.7,33.4c-13.6,7.8-29.4,9.9-44.5,5.9c-15.1-4.1-27.8-13.8-35.6-27.3
		c-16.2-28-6.5-63.9,21.5-80.1c20.5-11.8,45.9-10.2,64.7,4c3.4,2.6,8.4,1.9,11-1.5c2.6-3.4,1.9-8.4-1.5-11
		c-23.9-18.1-56.1-20.1-82-5.1c-17.2,9.9-29.5,25.9-34.6,45.1c-5.1,19.2-2.5,39.2,7.4,56.4c9.9,17.2,25.9,29.5,45.1,34.6
		c6.4,1.7,12.9,2.6,19.4,2.6c12.9,0,25.6-3.4,37-10C662.2,605.9,674.2,590.9,679.8,573z"/>
</g>
<circle class="st2" cx="461.7" cy="448.7" r="420.6"/>
</svg>
