<?xml version="1.0" encoding="utf-8"?>
<!-- Generator: Adobe Illustrator 22.0.0, SVG Export Plug-In . SVG Version: 6.00 Build 0)  -->
<svg version="1.1" id="Calque_1" xmlns="http://www.w3.org/2000/svg" xmlns:xlink="http://www.w3.org/1999/xlink" x="0px" y="0px"
	 viewBox="0 0 903.7 880.6" style="enable-background:new 0 0 903.7 880.6;" xml:space="preserve">
<style type="text/css">
	.st0{opacity:0.73;fill:#00C9A7;}
	.st1{opacity:0.16;fill:#00C9A7;}
</style>
<path class="st0" d="M355.2,407c-15.5,5.9-26.6,20.7-26.6,38.3c0,6.8,1.8,13,4.7,18.7c-12.3,4.7-21.1,16.6-21.1,30.6
	c0,14,8.8,25.8,21.1,30.6c-2.9,5.6-4.7,11.9-4.7,18.7c0,17.5,11.1,32.4,26.6,38.3c-1.2,3.4-2,7.1-2,10.9c0,18.1,14.7,32.8,32.8,32.8
	c4.1,0,8-0.8,11.6-2.2c5.3,11,16.5,18.6,29.5,18.6c18.1,0,32.8-14.7,32.8-32.8V379.6c0-18.1-14.7-32.8-32.8-32.8
	c-13,0-24.1,7.6-29.5,18.6c-3.6-1.4-7.5-2.2-11.6-2.2c-18.1,0-32.8,14.7-32.8,32.8C353.1,399.9,353.9,403.6,355.2,407z M386,379.6
	c9.1,0,16.4,7.4,16.4,16.4h16.4c0-7.9-2.9-15-7.6-20.7c1.9-7,8.2-12.1,15.8-12.1c9.1,0,16.4,7.4,16.4,16.4v229.8
	c0,9.1-7.4,16.4-16.4,16.4c-7.6,0-13.9-5.2-15.8-12.1c4.7-5.7,7.6-12.8,7.6-20.7h-16.4c0,9.1-7.4,16.4-16.4,16.4
	c-9.1,0-16.4-7.4-16.4-16.4s7.4-16.4,16.4-16.4v-16.4c-8,0-15.2,3-20.9,7.7c-11.4-2.1-20.1-12.1-20.1-24.2c0-13.6,11-24.6,24.6-24.6
	c13.6,0,24.6,11,24.6,24.6h16.4c0-22.6-18.4-41-41-41c-9.3,0-17.7,3.2-24.6,8.4v-0.2c-9.1,0-16.4-7.4-16.4-16.4
	c0-9.1,7.4-16.4,16.4-16.4v-0.2c6.9,5.2,15.3,8.4,24.6,8.4c22.6,0,41-18.4,41-41h-16.4c0,13.6-11,24.6-24.6,24.6
	c-13.6,0-24.6-11-24.6-24.6c0-12,8.7-22,20.1-24.2c5.7,4.8,12.9,7.7,20.9,7.7v-16.4c-9.1,0-16.4-7.4-16.4-16.4
	C369.5,387,376.9,379.6,386,379.6z"/>
<path class="st0" d="M550.1,363.2c-4.1,0-8,0.8-11.6,2.2c-5.3-11-16.5-18.6-29.5-18.6c-18.1,0-32.8,14.7-32.8,32.8v229.8
	c0,18.1,14.7,32.8,32.8,32.8c13,0,24.1-7.6,29.5-18.6c3.6,1.4,7.5,2.2,11.6,2.2c18.1,0,32.8-14.7,32.8-32.8c0-3.9-0.8-7.5-2-10.9
	c15.5-5.9,26.6-20.7,26.6-38.3c0-6.8-1.8-13-4.7-18.7c12.3-4.7,21.1-16.6,21.1-30.6c0-14-8.8-25.8-21.1-30.6
	c2.9-5.6,4.7-11.9,4.7-18.7c0-17.5-11.1-32.4-26.6-38.3c1.2-3.4,2-7.1,2-10.9C582.9,378,568.2,363.2,550.1,363.2z M591.1,445.3
	c0,13.6-11,24.6-24.6,24.6c-13.6,0-24.6-11-24.6-24.6h-16.4c0,22.6,18.4,41,41,41c9.3,0,17.7-3.2,24.6-8.4v0.2
	c9.1,0,16.4,7.4,16.4,16.4c0,9.1-7.4,16.4-16.4,16.4v0.2c-6.9-5.2-15.3-8.4-24.6-8.4c-22.6,0-41,18.4-41,41h16.4
	c0-13.6,11-24.6,24.6-24.6c13.6,0,24.6,11,24.6,24.6c0,12-8.7,22-20.1,24.2c-5.7-4.8-12.9-7.7-20.9-7.7v16.4
	c9.1,0,16.4,7.4,16.4,16.4s-7.4,16.4-16.4,16.4s-16.4-7.4-16.4-16.4h-16.4c0,7.9,2.9,15,7.6,20.7c-1.9,7-8.2,12.1-15.8,12.1
	c-9.1,0-16.4-7.4-16.4-16.4V379.6c0-9.1,7.4-16.4,16.4-16.4c7.6,0,13.9,5.2,15.8,12.1c-4.7,5.7-7.6,12.8-7.6,20.7h16.4
	c0-9.1,7.4-16.4,16.4-16.4s16.4,7.4,16.4,16.4c0,9.1-7.4,16.4-16.4,16.4v16.4c8,0,15.2-3,20.9-7.7
	C582.4,423.3,591.1,433.3,591.1,445.3z"/>
<path class="st0" d="M597.2,357c-38.3-36-88.6-54.1-141.3-50.8l1,16.4c48.2-3,94,13.5,129,46.4c35,32.9,54.3,77.5,54.3,125.6
	c0,57.9-28.9,111.6-77.2,143.7c-16.7,11.1-29.3,26.8-37.1,45.1H409.7c-7.9-18.4-20.6-34.2-37.3-45.4
	c-49.8-33.3-78.5-88.9-76.6-148.8l-16.4-0.5c-2,65.6,29.3,126.5,83.9,163c12.1,8.1,21.7,19,28.4,31.8h-22.1v16.4h28.7
	c1.6,5.3,2.9,10.8,3.5,16.4H386v16.4h16.4v24.6c0,4.5,3.7,8.2,8.2,8.2h8.2c0,27.2,22.1,49.2,49.2,49.2s49.2-22.1,49.2-49.2h8.2
	c4.5,0,8.2-3.7,8.2-8.2v-24.6h16.4v-16.4h-15.8c0.6-5.6,1.7-11.1,3.3-16.4h28.9v-16.4H544c6.6-12.6,16.2-23.4,28.2-31.4
	c52.9-35.1,84.6-93.9,84.6-157.4C656.7,442.6,635.1,392.5,597.2,357z M468,798.1c-18.1,0-32.8-14.7-32.8-32.8h65.6
	C500.8,783.4,486.1,798.1,468,798.1z M517.2,748.9h-98.5v-16.4h98.5V748.9z M517.8,716.1h-99.7c-0.5-5.6-1.4-11.1-2.8-16.4h105
	C519.1,705,518.3,710.5,517.8,716.1z"/>
<path class="st0" d="M271.1,363.2c18.1,0,32.8,14.7,32.8,32.8c0,4.5,3.7,8.2,8.2,8.2c4.5,0,8.2-3.7,8.2-8.2
	c0-18.1,14.7-32.8,32.8-32.8c4.5,0,8.2-3.7,8.2-8.2c0-4.5-3.7-8.2-8.2-8.2c-18.1,0-32.8-14.7-32.8-32.8c0-4.5-3.7-8.2-8.2-8.2
	c-4.5,0-8.2,3.7-8.2,8.2c0,18.1-14.7,32.8-32.8,32.8c-4.5,0-8.2,3.7-8.2,8.2C262.9,359.6,266.5,363.2,271.1,363.2z M312.1,341.2
	c3.6,5.5,8.4,10.2,13.8,13.8c-5.5,3.6-10.2,8.4-13.8,13.8c-3.6-5.5-8.4-10.2-13.8-13.8C303.7,351.4,308.5,346.7,312.1,341.2z"/>
<path class="st0" d="M303.9,445.3c4.5,0,8.2-3.7,8.2-8.2c0-4.5-3.7-8.2-8.2-8.2c-18.1,0-32.8-14.7-32.8-32.8c0-4.5-3.7-8.2-8.2-8.2
	c-4.5,0-8.2,3.7-8.2,8.2c0,18.1-14.7,32.8-32.8,32.8c-4.5,0-8.2,3.7-8.2,8.2c0,4.5,3.7,8.2,8.2,8.2c18.1,0,32.8,14.7,32.8,32.8
	c0,4.5,3.7,8.2,8.2,8.2c4.5,0,8.2-3.7,8.2-8.2C271.1,460,285.8,445.3,303.9,445.3z M262.9,450.9c-3.6-5.5-8.4-10.2-13.8-13.8
	c5.5-3.6,10.2-8.4,13.8-13.8c3.6,5.5,8.4,10.2,13.8,13.8C271.2,440.7,266.5,445.4,262.9,450.9z"/>
<circle class="st1" cx="462.8" cy="437.1" r="420.6"/>
</svg>
