<?xml version="1.0" encoding="utf-8"?>
<!-- Generator: Adobe Illustrator 22.0.0, SVG Export Plug-In . SVG Version: 6.00 Build 0)  -->
<svg version="1.1" id="Calque_1" xmlns="http://www.w3.org/2000/svg" xmlns:xlink="http://www.w3.org/1999/xlink" x="0px" y="0px"
	 viewBox="0 0 1469.2 1292.7" style="enable-background:new 0 0 1469.2 1292.7;" xml:space="preserve">
<style type="text/css">
	.st0{display:none;opacity:0.16;fill:#377dff;enable-background:new    ;}
	.st1{opacity:0.16;fill:#377dff;enable-background:new    ;}
	.st2{opacity:0.79;fill:#DE4437;enable-background:new    ;}
	.st3{opacity:0.46;fill:#DE4437;enable-background:new    ;}
	.st4{fill:#F1CA50;}
	.st5{fill:#F5DC90;}
	.st6{fill:#F7E6B0;}
	.st7{fill:#FFF5F5;}
	.st8{fill:#F9EECF;}
	.st9{fill:#025F80;}
	.st10{fill:#0680AE;}
	.st11{fill:#0AB59E;}
	.st12{fill:#0ED1B2;}
	.st13{fill:#D3F1F5;}
	.st14{fill:#ADE8F0;}
	.st15{fill:#6CAAC9;}
	.st16{fill:#024C67;}
	.st17{fill:#017296;}
	.st18{fill:#E30048;}
	.st19{fill:#FD3980;}
	.st20{opacity:7.000000e-02;fill:#377dff;enable-background:new    ;}
	.st21{fill:#3691BB;}
	.st22{fill:#D00041;}
	.st23{fill:#FD0464;}
	.st24{fill:#E8CE00;}
	.st25{fill:#FDE803;}
</style>
<path class="st0" d="M1426.7,357c135.2,271.7-374.1,775.1-640,892.4c-265.9,117.4-558-204.1-672.4-463.2s-25.5-448.6,240.4-566
	C911.9-25.7,1190.5-117.6,1426.7,357z"/>
<circle class="st1" cx="768" cy="646.3" r="628.6"/>
<path class="st2" d="M324.6,816.5v225.2c0,18.3-14.9,33.1-33.2,32.8c-0.2,0-0.3,0-0.5,0c-51.8-2.4-97.8-26.7-129-63.9V816.5
	c0-11.2,6.7-21.4,17-25.8l23.6-10.1c5.2-2.2,8.5-7.3,8.5-12.9v-18.8h64.5v18.8c0,5.6,3.3,10.7,8.5,12.9l23.6,10.1
	C318,795.1,324.6,805.2,324.6,816.5z"/>
<path class="st3" d="M211,748.9h21v32.8c0,5.6-3.3,10.7-8.5,12.9L200,804.7c-10.3,4.4-17,14.6-17,25.8v201.3
	c-7.6-6.5-14.6-13.6-21-21.2V816.5c0-11.2,6.7-21.4,17-25.8l23.6-10.1c5.2-2.2,8.5-7.3,8.5-12.9v-18.8H211z"/>
<path class="st4" d="M304.6,929.9l-52.8-90.2c-3.8-6.5-13.3-6.5-17.1,0l-52.8,90.1c-3.9,6.6,0.9,14.9,8.6,14.9h105.6
	C303.8,944.8,308.5,936.5,304.6,929.9z M243.4,934.9c-4.6,0-8.3-3.7-8.3-8.3s3.7-8.3,8.3-8.3s8.3,3.7,8.3,8.3S248,934.9,243.4,934.9
	z M254,863.8l-5.7,44.5c-0.3,2.5-2.5,4.4-5,4.4s-4.7-1.9-5-4.4l-5.7-44.5c-0.8-6.4,4.2-12.1,10.7-12.1S254.9,857.4,254,863.8z"/>
<path class="st5" d="M251.9,839.7c-0.3-0.5-0.6-0.9-1-1.4c-18.8,11.1-31.4,31.6-31.4,55c0,21.1,10.2,39.8,26,51.4h50.6
	c7.7,0,12.4-8.3,8.6-14.9L251.9,839.7z M243.4,934.9c-4.6,0-8.3-3.7-8.3-8.3s3.7-8.3,8.3-8.3s8.3,3.7,8.3,8.3S248,934.9,243.4,934.9
	z M254,863.8l-5.7,44.5c-0.3,2.5-2.5,4.4-5,4.4s-4.7-1.9-5-4.4l-5.7-44.5c-0.8-6.4,4.2-12.1,10.7-12.1S254.9,857.4,254,863.8z"/>
<path class="st6" d="M282,718.5v34.4c0,2-1.6,3.7-3.7,3.7h-69.8c-2,0-3.7-1.6-3.7-3.7v-34.4c0-6.1,4.9-11,11-11H271
	C277,707.5,282,712.5,282,718.5z"/>
<path class="st7" d="M282,718.1v35.1c0,1.9-1.6,3.5-3.5,3.5h-4.2v-35.1c0-3.9-3.1-7-7-7s-7,3.1-7,7v35.1h-14v-35.1c0-3.9-3.1-7-7-7
	s-7,3.1-7,7v35.1h-10.5c-1.9,0-3.5-1.6-3.5-3.5v-35.1c0-5.8,4.7-10.5,10.5-10.5h42.8C277.1,707.5,282,712.2,282,718.1z"/>
<path class="st7" d="M453.8,987c-31.3,52.5-88.7,87.7-154.3,87.7c-2.8,0-5.6-0.1-8.4-0.2v-116c0-11.2,6.7-21.4,17-25.8l23.6-10.1
	c5.2-2.2,8.5-7.3,8.5-12.9v-18.8h64.5v18.8c0,5.6,3.3,10.7,8.5,12.9l23.6,10.1c10.3,4.4,17,14.6,17,25.8L453.8,987L453.8,987z"/>
<path class="st8" d="M340.1,890.9h21v32.8c0,5.6-3.3,10.7-8.5,12.9L329,946.7c-10.3,4.4-17,14.6-17,25.8v101.7
	c-4.2,0.3-8.4,0.4-12.6,0.4c-2.8,0-5.6-0.1-8.4-0.2V958.5c0-11.2,6.7-21.4,17-25.8l23.6-10.1c5.2-2.2,8.5-7.3,8.5-12.9V890.9z"/>
<path class="st9" d="M411,887.4v21c0,1.9-1.6,3.5-3.5,3.5h-70.1c-1.9,0-3.5-1.6-3.5-3.5v-21c0-5.8,4.7-10.5,10.5-10.5h2.8v-38.6
	c0-5.8,4.7-10.5,10.5-10.5h29.5c5.8,0,10.5,4.7,10.5,10.5v38.6h2.8C406.2,876.9,411,881.6,411,887.4z"/>
<path class="st10" d="M411,887.4v21c0,1.9-1.6,3.5-3.5,3.5h-4.2v-21c0-3.9-3.1-7-7-7s-7,3.1-7,7v21h-14v-21c0-3.9-3.1-7-7-7
	s-7,3.1-7,7v21h-10.5c-1.9,0-3.5-1.6-3.5-3.5v-21c0-5.8,4.7-10.5,10.5-10.5h3.5v-38.6c0-5.8,4.7-10.5,10.5-10.5h15.4
	c5.8,0,10.5,4.7,10.5,10.5v38.6h2.8C406.2,876.9,411,881.6,411,887.4z"/>
<path class="st11" d="M312,1074.2v-71.1c0-3.9,3.1-7,7-7h5.6c14.8,0,29.3-3.4,42.5-10l16-8c13.2-6.6,27.8-10,42.5-10
	c3.9,0,7,3.1,7,7v40.4C402.5,1048.9,359.9,1070.9,312,1074.2z"/>
<path class="st12" d="M336,1025.4v-30c10.9-1.3,21.5-4.5,31.3-9.4l16-8c13.2-6.6,27.7-10,42.5-10c3.9,0,7,3.1,7,7v40.4
	c-14.1,15.6-30.8,28.6-49.5,38.5C361.8,1065.3,336,1049.7,336,1025.4z"/>
<path class="st13" d="M1101.4,1133.2c-5.4,0.5-10.9,0.8-16.5,0.8c-53.5,0-100.9-25.9-130.5-65.9V945.8c0-10.1,6-19.3,15.4-23.3
	l21.3-9.1c4.7-2,7.7-6.6,7.7-11.6v-17h58.3v17c0,5.1,3,9.6,7.7,11.6l21.3,9.1c9.3,4,15.4,13.1,15.4,23.3v187.4H1101.4z"/>
<path class="st14" d="M998.8,884.8h19v29.6c0,5.1-3,9.6-7.7,11.6l-21.3,9.1c-9.3,4-15.4,13.1-15.4,23.3v131.1
	c-6.9-6.6-13.3-13.8-19-21.5V945.8c0-10.1,6-19.3,15.4-23.3l21.3-9.1c4.7-2,7.7-6.6,7.7-11.6V884.8L998.8,884.8z"/>
<path class="st15" d="M1090.7,891.1c-8.7,0-15.8-7.1-15.8-15.8v-31.7c0-1.8,1.4-3.2,3.2-3.2h12.7c1.8,0,3.2,1.4,3.2,3.2V888
	C1093.8,889.7,1092.4,891.1,1090.7,891.1z"/>
<path class="st16" d="M1131.8,818.3V831c0,5.2-4.3,9.5-9.5,9.5h-15.8v3.2c0,1.7-1.4,3.2-3.2,3.2h-52.6v25.3h2.5
	c5.2,0,9.5,4.3,9.5,9.5v19c0,1.7-1.4,3.2-3.2,3.2h-63.3c-1.8,0-3.2-1.4-3.2-3.2v-19c0-5.2,4.3-9.5,9.5-9.5h2.5v-25.3h-15.8
	c-5.2,0-9.5-4.3-9.5-9.5V812c0-5.2,4.3-9.5,9.5-9.5h114c1.8,0,3.2,1.4,3.2,3.2v3.2h15.8C1127.6,808.8,1131.8,813.1,1131.8,818.3z"/>
<path class="st17" d="M1131.8,818.3c0,5.2-4.3,9.5-9.5,9.5h-15.8c0,3.5-2.8,6.3-6.3,6.3h-85.5c-5.2,0-9.5-4.3-9.5-9.5V812
	c0-5.2,4.3-9.5,9.5-9.5h88.7c1.7,0,3.2,1.4,3.2,3.2v3.2h15.8C1127.6,808.8,1131.8,813.1,1131.8,818.3z M1053.3,872.1h-2.5v-8.9
	c0-9.1-7.4-16.5-16.5-16.5s-16.5,7.4-16.5,16.5v8.9h-3.2c-5.2,0-9.5,4.3-9.5,9.5v19c0,1.7,1.4,3.2,3.2,3.2h9.5V885
	c0-3.4,2.5-6.3,5.9-6.5c3.7-0.2,6.8,2.7,6.8,6.3v19h12.7V885c0-3.4,2.5-6.3,5.9-6.5c3.7-0.2,6.8,2.7,6.8,6.3v19h3.8
	c1.8,0,3.2-1.4,3.2-3.2v-19C1062.8,876.4,1058.5,872.1,1053.3,872.1z"/>
<path class="st18" d="M1085,1134c-23.9,0-46.7-5.2-67.1-14.5v-74.1c0-7,5.7-12.7,12.7-12.7h164.7c7,0,12.7,5.7,12.7,12.7v32.3
	C1178.1,1112.2,1134.1,1134,1085,1134z"/>
<path class="st19" d="M1195.1,1032.7h-82.3c-1.5,7.2-7.9,12.7-15.5,12.7c-7.7,0-14-5.4-15.5-12.7h-32.3c-5.9,0-10.9,4.1-12.3,9.6
	c-0.1,0.3-0.1,0.8-0.2,1.3c-0.1,0.9,0.8,1.6,1.7,1.3c1.5-0.6,3.1-0.8,4.8-0.8c6.6,0.2,12,5.5,12.3,12c0.4,7.3-5.4,13.3-12.6,13.3
	c-1.6,0-3.2-0.3-4.6-0.9c-0.8-0.3-1.8,0.3-1.8,1.2v51.6c0,2.1,0.5,4.1,1.4,5.8c14.8,4.4,30.5,6.8,46.7,6.8c8.5,0,16.9-0.7,25.1-2
	c-1,0.1-1.9,0.3-2.9,0.4c-0.7-2.8-0.9-5.9-0.6-9c1.4-12.1,11.4-21.6,23.6-22.4c11.6-0.7,21.7,6.5,25.4,16.7
	c20-9.7,37.8-23.4,52.2-40.1v-32.3C1207.8,1038.3,1202.1,1032.7,1195.1,1032.7z M1059,1094.7c-5.2,0-9.5-4.3-9.5-9.5
	s4.3-9.5,9.5-9.5s9.5,4.3,9.5,9.5S1064.2,1094.7,1059,1094.7z M1147.7,1082.1c-8.7,0-15.8-7.1-15.8-15.8c0-8.7,7.1-15.8,15.8-15.8
	c8.7,0,15.8,7.1,15.8,15.8S1156.4,1082.1,1147.7,1082.1z M1192,1075.7c-5.2,0-9.5-4.3-9.5-9.5s4.3-9.5,9.5-9.5s9.5,4.3,9.5,9.5
	C1201.5,1071.5,1197.2,1075.7,1192,1075.7z"/>
<path class="st20" d="M804.8,334.6c0,48.8-20.8,92.7-54,123.4c-7.4,6.9-19.5,1.6-19.5-8.6v-225c0-12.1,14.6-18.2,23.2-9.7
	C785.6,245.2,804.8,287.6,804.8,334.6z"/>
<path class="st15" d="M724.8,477.8c-25.6,15.8-55.7,24.8-88,24.8c-3.5,0-7-0.1-10.5-0.3c-44.5-2.7-76.6-29.4-105-60.1
	c-25.8-27.9-50.1-58-52.3-98.5c-0.2-3-0.2-6.1-0.2-9.2c0-92.8,75.2-168,168-168c32.2,0,62.4,9.1,88,24.8V477.8z"/>
<path class="st21" d="M613.2,291.3c0,3.6-2.9,6.6-6.6,6.6c-3.6,0-6.6-2.9-6.6-6.6c0-3.6,2.9-6.6,6.6-6.6
	C610.2,284.7,613.2,287.6,613.2,291.3z M580.3,258.4c-3.6,0-6.6,2.9-6.6,6.6c0,3.6,2.9,6.6,6.6,6.6c3.6,0,6.6-2.9,6.6-6.6
	C586.9,261.4,584,258.4,580.3,258.4z M705.1,324.1c3.6,0,6.6-2.9,6.6-6.6c0-3.6-2.9-6.6-6.6-6.6c-3.6,0-6.6,2.9-6.6,6.6
	C698.5,321.1,701.4,324.1,705.1,324.1z M619.7,179.7c-3.6,0-6.6,2.9-6.6,6.6c0,3.6,2.9,6.6,6.6,6.6c3.6,0,6.6-2.9,6.6-6.6
	C626.3,182.6,623.4,179.7,619.7,179.7z M508.1,245.3c-3.6,0-6.6,2.9-6.6,6.6c0,3.6,2.9,6.6,6.6,6.6c3.6,0,6.6-2.9,6.6-6.6
	C514.7,248.3,511.8,245.3,508.1,245.3z M580.3,192.8c0-3.6-2.9-6.6-6.6-6.6c-3.6,0-6.6,2.9-6.6,6.6s2.9,6.6,6.6,6.6
	C577.4,199.4,580.3,196.4,580.3,192.8z M691.9,192.8c0-3.6-2.9-6.6-6.6-6.6s-6.6,2.9-6.6,6.6s2.9,6.6,6.6,6.6
	C689,199.4,691.9,196.4,691.9,192.8z M646,179.7c0-3.6-2.9-6.6-6.6-6.6c-3.6,0-6.6,2.9-6.6,6.6c0,3.6,2.9,6.6,6.6,6.6
	C643,186.2,646,183.3,646,179.7z M705.1,468.5c-3.6,0-6.6,2.9-6.6,6.6c0,3.6,2.9,6.6,6.6,6.6c3.6,0,6.6-2.9,6.6-6.6
	C711.6,471.4,708.7,468.5,705.1,468.5z M705.1,396.3c-3.6,0-6.6,2.9-6.6,6.6c0,3.6,2.9,6.6,6.6,6.6c3.6,0,6.6-2.9,6.6-6.6
	C711.6,399.2,708.7,396.3,705.1,396.3z M691.9,363.5c-3.6,0-6.6,2.9-6.6,6.6c0,3.6,2.9,6.6,6.6,6.6s6.6-2.9,6.6-6.6
	S695.6,363.5,691.9,363.5z M672.2,343.8c-3.6,0-6.6,2.9-6.6,6.6c0,3.6,2.9,6.6,6.6,6.6c3.6,0,6.6-2.9,6.6-6.6
	C678.8,346.7,675.9,343.8,672.2,343.8z M646,258.4c-3.6,0-6.6,2.9-6.6,6.6c0,3.6,2.9,6.6,6.6,6.6c3.6,0,6.6-2.9,6.6-6.6
	C652.6,261.4,649.6,258.4,646,258.4z"/>
<path class="st13" d="M751,211.3v246.5c-9.9,9.2-20.9,17.2-32.8,23.8v-233c0-5.4-4.4-9.8-9.8-9.8H498.8
	c8.5-12.2,18.6-23.3,29.9-32.8h179.6c5.4,0,9.8-4.4,9.8-9.8v-8.5C730.1,194.2,741.1,202.2,751,211.3z"/>
<path class="st13" d="M469,343.5l30-30c2.6-2.6,6.7-2.6,9.3,0l149.6,149.6c2.6,2.6,2.6,6.7,0,9.3l-30,30
	C542.2,497.9,473.5,429.2,469,343.5z"/>
<path class="st22" d="M660.9,482.3L489.1,310.5c-2.6-2.6-2.6-6.7,0-9.3l27.8-27.8c2.6-2.6,6.7-2.6,9.3,0L698,445.1
	c2.6,2.6,2.6,6.7,0,9.3l-27.8,27.8C667.6,484.8,663.4,484.8,660.9,482.3z"/>
<path class="st23" d="M670.1,473L498.4,301.2c-2.6-2.6-2.6-6.7,0-9.3l18.6-18.6c2.6-2.6,6.7-2.6,9.3,0L698,445.1
	c2.6,2.6,2.6,6.7,0,9.3L679.4,473C676.9,475.5,672.7,475.5,670.1,473z"/>
<path class="st16" d="M809,186.3l-163,163c-4.3,4.3-11.2,4.3-15.5,0l-8.6-8.6c-4.3-4.3-4.3-11.2,0-15.5l163-163
	c4.3-4.3,11.2-4.3,15.5,0l8.6,8.6C813.3,175.1,813.3,182.1,809,186.3z"/>
<path class="st17" d="M809.3,186l-122,122c-4.1,4.1-10.8,4.1-14.9,0c-4.1-4.1-4.1-10.8,0-14.9l122-122c4.1-4.1,10.8-4.1,14.9,0
	C813.4,175.3,813.4,181.9,809.3,186z"/>
<path class="st24" d="M679.4,463.7L507.7,292c-2.6-2.6-2.6-6.7,0-9.3l23.2-23.2c2.6-2.6,6.7-2.6,9.3,0l171.7,171.7
	c2.6,2.6,2.6,6.7,0,9.3l-23.2,23.2C686.1,466.3,682,466.3,679.4,463.7z"/>
<path class="st25" d="M711.9,440.5L698,454.4c-2.6,2.6-6.7,2.6-9.3,0L525.8,291.5c-2.6-2.6-2.6-6.7,0-9.3l13.9-13.9
	c2.6-2.6,6.7-2.6,9.3,0l38,38c7.9,7.9,20,9.9,30,5l14.5-7c2.5-1.2,5.5-0.7,7.5,1.3l26.8,26.8c2,2,2.5,5,1.3,7.5l-7,14.5
	c-4.9,10.1-2.9,22.1,5,30.1l46.8,46.8C714.5,433.8,714.5,437.9,711.9,440.5z"/>
</svg>
